<svg height="512" viewBox="0 0 58 60" width="512" xmlns="http://www.w3.org/2000/svg"><g id="Page-1" fill="none" fill-rule="evenodd"><g id="024---Auction" fill-rule="nonzero"><path id="Shape" d="m56 5c0 3 1 4 1 4h-6v-4h-10v4h-20c-2.209139 0-4-1.790861-4-4s1.790861-4 4-4h36s-1 1-1 4z" fill="#ffe0b2"/><path id="Shape" d="m57 1h-3s-1 1-1 4 1 4 1 4h3s-1-1-1-4 1-4 1-4z" fill="#dfc49c"/><path id="Shape" d="m57 9v38c0 .5522847-.4477153 1-1 1h-34v-3c-.0032948-1.1032019-.8967981-1.9967052-2-2v-12h7v1c0 .5522847.4477153 1 1 1h2c1.6568542 0 3-1.3431458 3-3v-14c0-1.6568542-1.3431458-3-3-3h-2c-.5522847 0-1 .4477153-1 1v1h-10v-10c0 2.209139 1.790861 4 4 4h20v21l5-5 5 5v-21z" fill="#f44335"/><path id="Shape" d="m54 9v38c0 .5522847-.4477153 1-1 1h3c.5522847 0 1-.4477153 1-1v-38z" fill="#c81e1e"/><path id="Shape" d="m51 5v25l-5-5-5 5v-25z" fill="#ffdc00"/><path id="Shape" d="m48 5v22l3 3v-25z" fill="#fec108"/><path id="Shape" d="m7 14v18c0 .5522847-.44771525 1-1 1h-2c-1.65685425 0-3-1.3431458-3-3v-14c0-1.6568542 1.34314575-3 3-3h2c.55228475 0 1 .4477153 1 1z" fill="#ff9801"/><path id="Shape" d="m6 13h-2c-.21635666.0007685-.43197739.025248-.643.073.38481497.1470583.64006931.5150533.643.927v18c-.00293069.4119467-.25818503.7799417-.643.927.21102261.047752.42664334.0722315.643.073h2c.55228475 0 1-.4477153 1-1v-18c0-.5522847-.44771525-1-1-1z" fill="#f57c00"/><path id="Shape" d="m33 16v14c0 1.6568542-1.3431458 3-3 3h-2c-.5522847 0-1-.4477153-1-1v-18c0-.5522847.4477153-1 1-1h2c1.6568542 0 3 1.3431458 3 3z" fill="#ff9801"/><path id="Shape" d="m30 13h-2c-.1225353.0016347-.2436589.0264023-.357.073 1.3766157.2993615 2.358108 1.5182109 2.357 2.927v14c.001108 1.4087891-.9803843 2.6276385-2.357 2.927.1133411.0465977.2344647.0713653.357.073h2c1.6568542 0 3-1.3431458 3-3v-14c0-1.6568542-1.3431458-3-3-3z" fill="#f57c00"/><path id="Rectangle-path" d="m7 15h20v16h-20z" fill="#f57c00"/><path id="Rectangle-path" d="m14 31h6v12h-6z" fill="#a0522d"/><path id="Shape" d="m22 45v9c0 2.7614237-2.2385763 5-5 5s-5-2.2385763-5-5v-9c.0032948-1.1032019.8967981-1.9967052 2-2h6c1.1032019.0032948 1.9967052.8967981 2 2z" fill="#ff9801"/><path id="Shape" d="m20 43h-3c1.1032019.0032948 1.9967052.8967981 2 2v9c-.0056526 2.1761534-1.4225411 4.0970494-3.5 4.745.4838155.1620147.9898258.2480365 1.5.255 1.3260824 0 2.597852-.5267842 3.5355339-1.4644661s1.4644661-2.2094515 1.4644661-3.5355339v-9c-.0032948-1.1032019-.8967981-1.9967052-2-2z" fill="#f57c00"/><g fill="#f5f5f5"><rect id="Rectangle-path" height="4" rx="1" width="12" x="33" y="36"/><path id="Shape" d="m23 6h-1c-.5522847 0-1-.44771525-1-1s.4477153-1 1-1h1c.5522847 0 1 .44771525 1 1s-.4477153 1-1 1z"/><path id="Shape" d="m37 6h-10c-.5522847 0-1-.44771525-1-1s.4477153-1 1-1h10c.5522847 0 1 .44771525 1 1s-.4477153 1-1 1z"/><path id="Shape" d="m12 20h-1c-.5522847 0-1-.4477153-1-1s.4477153-1 1-1h1c.5522847 0 1 .4477153 1 1s-.4477153 1-1 1z"/><path id="Shape" d="m23 20h-7c-.5522847 0-1-.4477153-1-1s.4477153-1 1-1h7c.5522847 0 1 .4477153 1 1s-.4477153 1-1 1z"/></g><path id="Shape" d="m57.731 8.318c-.007-.008-.731-.873-.731-3.318-.1105566-1.14449057.1368226-2.29508328.708-3.293.2860368-.28612294.3714873-.71640792.2164868-1.09011669-.1550004-.37370876-.5199089-.61720162-.9244868-.61688331h-36c-2.7614237 0-5 2.23857625-5 5v9h-8c0-1.1045695-.8954305-2-2-2h-2c-2.209139 0-4 1.790861-4 4v14c0 2.209139 1.790861 4 4 4h2c1.1045695 0 2-.8954305 2-2h5v10.184c-1.1943509.4222546-1.9947486 1.5492146-2 2.816v9c0 3.3137085 2.6862915 5.9999999 6 5.9999999s6-2.6862914 6-5.9999999v-5h33c1.1045695 0 2-.8954305 2-2v-38h-.026c.0036557-.24915939-.0826162-.49128872-.243-.682zm-36.731-6.318h34.394c-.2799547.97480823-.4127529 1.98596151-.394 3-.0187529 1.01403849.1140453 2.02519177.394 3h-3.394v-3c0-.55228475-.4477153-1-1-1h-10c-.5522847 0-1 .44771525-1 1v3h-19c-1.6568542 0-3-1.34314575-3-3s1.3431458-3 3-3zm29 4v21.586l-3.293-3.293c-.3904999-.3903819-1.0235001-.3903819-1.414 0l-3.293 3.293v-21.586zm-46 26c-1.1045695 0-2-.8954305-2-2v-14c0-1.1045695.8954305-2 2-2h2v1 17zm4-16h18v14h-18zm20 15v-17h2c1.1045695 0 2 .8954305 2 2v14c0 1.1045695-.8954305 2-2 2h-2zm-9 1v10h-4v-10zm2 22c0 2.209139-1.790861 4-4 4s-4-1.790861-4-4v-9c0-.5522847.4477153-1 1-1h6c.5522847 0 1 .4477153 1 1zm2-7v-2c-.0052514-1.2667854-.8056491-2.3937454-2-2.816v-10.184h5c0 1.1045695.8954305 2 2 2h2c2.209139 0 4-1.790861 4-4v-14c0-2.209139-1.790861-4-4-4h-2c-1.1045695 0-2 .8954305-2 2h-8v-5.026c.8603889.66180667 1.9145307 1.02232318 3 1.026h19v20c.0000863.4043959.2437275.7689341.6173454.923678.373618.1547439.8036603.0692299 1.0896546-.216678l4.293-4.293 4.293 4.293c.2859943.2859079.7160366.3714219 1.0896546.216678.3736179-.1547439.6172591-.5192821.6173454-.923678v-20h4v37z" fill="#000"/><path id="Shape" d="m44 35h-10c-1.1045695 0-2 .8954305-2 2v2c0 1.1045695.8954305 2 2 2h10c1.1045695 0 2-.8954305 2-2v-2c0-1.1045695-.8954305-2-2-2zm-10 4v-2h10v2z" fill="#000"/><path id="Shape" d="m43 43h-8c-.5522847 0-1 .4477153-1 1s.4477153 1 1 1h8c.5522847 0 1-.4477153 1-1s-.4477153-1-1-1z" fill="#000"/></g></g></svg>