<?xml version="1.0" encoding="iso-8859-1"?>
<!-- Generator: Adobe Illustrator 19.0.0, SVG Export Plug-In . SVG Version: 6.00 Build 0)  -->
<svg version="1.1" id="Capa_1" xmlns="http://www.w3.org/2000/svg" xmlns:xlink="http://www.w3.org/1999/xlink" x="0px" y="0px"
	 viewBox="0 0 512 512" style="enable-background:new 0 0 512 512;" xml:space="preserve">
<path style="fill:#53ABBF;" d="M325.096,241.639h-54.531V181.01c0-8.284-6.716-15-15-15h-72.411c-8.284,0-15,6.716-15,15
	s6.716,15,15,15h57.411v118.04h-57.411c-8.284,0-15,6.716-15,15s6.716,15,15,15h72.411c8.284,0,15-6.716,15-15v-57.411h54.531
	c8.284,0,15-6.716,15-15C340.096,248.355,333.38,241.639,325.096,241.639z"/>
<path style="fill:#96D1D9;" d="M181.609,122.181H15c-8.284,0-15,6.716-15,15v88.606c0,8.284,6.716,15,15,15h166.609
	c8.284,0,15-6.716,15-15v-88.606C196.609,128.896,189.893,122.181,181.609,122.181z"/>
<path style="fill:#F4F2E6;" d="M98.304,122.181H15c-8.284,0-15,6.716-15,15v88.606c0,8.284,6.716,15,15,15h83.304V122.181z"/>
<path style="fill:#96D1D9;" d="M181.609,271.213H15c-8.284,0-15,6.716-15,15v88.606c0,8.284,6.716,15,15,15h166.609
	c8.284,0,15-6.716,15-15v-88.606C196.609,277.929,189.893,271.213,181.609,271.213z"/>
<path style="fill:#F4F2E6;" d="M98.304,271.213H15c-8.284,0-15,6.716-15,15v88.606c0,8.284,6.716,15,15,15h83.304V271.213z"/>
<path style="fill:#DE513C;" d="M497,196.697H330.391c-8.284,0-15,6.716-15,15v88.606c0,8.284,6.716,15,15,15H497
	c8.284,0,15-6.716,15-15v-88.606C512,203.413,505.284,196.697,497,196.697z"/>
<path style="fill:#FC6249;" d="M413.696,196.697h-83.304c-8.284,0-15,6.716-15,15v88.606c0,8.284,6.716,15,15,15h83.304
	L413.696,196.697L413.696,196.697z"/>
<g>
</g>
<g>
</g>
<g>
</g>
<g>
</g>
<g>
</g>
<g>
</g>
<g>
</g>
<g>
</g>
<g>
</g>
<g>
</g>
<g>
</g>
<g>
</g>
<g>
</g>
<g>
</g>
<g>
</g>
</svg>
