<svg id="color_line" height="512" viewBox="0 0 74 74" width="512" xmlns="http://www.w3.org/2000/svg" data-name="color line"><rect fill="#6fc666" height="43.649" rx="3.083" width="68" x="3.9" y="17.476"/><path d="m71.9 20.56v37.48a3.07 3.07 0 0 1 -2.97 3.07 1.139 1.139 0 0 0 .02-.26v-37.48a3.081 3.081 0 0 0 -3.08-3.08h-61.83a.487.487 0 0 0 -.12.01 3.072 3.072 0 0 1 3.06-2.82h61.84a3.081 3.081 0 0 1 3.08 3.08z" fill="#65b54e"/><g fill="#fff"><path d="m17.258 54.886h-13.358a.5.5 0 0 1 -.5-.5v-30.172a.5.5 0 0 1 .5-.5h13.358a2.92 2.92 0 0 1 2.917 2.917v25.338a2.92 2.92 0 0 1 -2.917 2.917zm-12.858-1h12.858a1.919 1.919 0 0 0 1.917-1.917v-25.338a1.919 1.919 0 0 0 -1.917-1.917h-12.858z"/><path d="m7.581 45.554h-3.681a.5.5 0 0 1 -.5-.5v-11.509a.5.5 0 0 1 .5-.5h3.681a2.488 2.488 0 0 1 2.485 2.485v7.538a2.488 2.488 0 0 1 -2.485 2.486zm-3.182-1h3.182a1.487 1.487 0 0 0 1.485-1.485v-7.538a1.487 1.487 0 0 0 -1.485-1.485h-3.181z"/><path d="m19.675 48.082a.5.5 0 0 1 -.5-.5v-16.564a.5.5 0 0 1 .168-.374.477.477 0 0 1 .392-.123 8.626 8.626 0 0 1 7.565 8.779 8.627 8.627 0 0 1 -7.562 8.779.5.5 0 0 1 -.063.003zm.5-16.48v15.398a7.657 7.657 0 0 0 6.125-7.7 7.656 7.656 0 0 0 -6.125-7.7z"/><path d="m71.9 54.886h-13.358a2.92 2.92 0 0 1 -2.917-2.917v-25.338a2.92 2.92 0 0 1 2.917-2.917h13.358a.5.5 0 0 1 .5.5v30.172a.5.5 0 0 1 -.5.5zm-13.358-30.172a1.919 1.919 0 0 0 -1.917 1.917v25.338a1.919 1.919 0 0 0 1.917 1.917h12.858v-29.172z"/><path d="m71.9 45.554h-3.681a2.488 2.488 0 0 1 -2.485-2.485v-7.538a2.488 2.488 0 0 1 2.485-2.485h3.681a.5.5 0 0 1 .5.5v11.508a.5.5 0 0 1 -.5.5zm-3.681-11.509a1.487 1.487 0 0 0 -1.485 1.485v7.538a1.487 1.487 0 0 0 1.485 1.485h3.181v-10.508z"/><path d="m56.125 48.082a.5.5 0 0 1 -.06 0 8.627 8.627 0 0 1 -7.565-8.782 8.626 8.626 0 0 1 7.563-8.778.487.487 0 0 1 .392.123.5.5 0 0 1 .168.374v16.563a.5.5 0 0 1 -.5.5zm-.5-16.48a7.656 7.656 0 0 0 -6.125 7.698 7.657 7.657 0 0 0 6.125 7.7z"/><path d="m37.9 61.625a.5.5 0 0 1 -.5-.5v-43.649a.5.5 0 0 1 1 0v43.649a.5.5 0 0 1 -.5.5z"/><path d="m37.9 46.232a6.932 6.932 0 1 1 6.932-6.932 6.94 6.94 0 0 1 -6.932 6.932zm0-12.865a5.932 5.932 0 1 0 5.932 5.933 5.939 5.939 0 0 0 -5.932-5.932z"/></g><path d="m68.337 64.624h-9.625a.5.5 0 0 1 0-1h9.625a.5.5 0 0 1 0 1z" fill="#323c6b"/><path d="m55.952 64.624h-.928a.5.5 0 0 1 0-1h.928a.5.5 0 0 1 0 1z" fill="#323c6b"/><path d="m.953 20.3a.554.554 0 0 1 -.063 0 .5.5 0 0 1 -.434-.558 6.588 6.588 0 0 1 6.526-5.762h1.23a.5.5 0 0 1 0 1h-1.23a5.587 5.587 0 0 0 -5.534 4.886.5.5 0 0 1 -.495.434z" fill="#323c6b"/><path d="m11.774 14.976h-1.062a.5.5 0 0 1 0-1h1.063a.5.5 0 0 1 0 1z" fill="#323c6b"/><path d="m68.816 61.625h-61.833a3.587 3.587 0 0 1 -3.583-3.584v-37.482a3.587 3.587 0 0 1 3.584-3.583h61.832a3.587 3.587 0 0 1 3.584 3.583v37.482a3.587 3.587 0 0 1 -3.584 3.584zm-61.833-43.649a2.587 2.587 0 0 0 -2.583 2.583v37.482a2.587 2.587 0 0 0 2.584 2.583h61.832a2.587 2.587 0 0 0 2.584-2.583v-37.482a2.587 2.587 0 0 0 -2.583-2.583z" fill="#323c6b"/><path d="m25.192 58.579h-8.613a.6.6 0 0 1 0-1.2h8.613a.6.6 0 0 1 0 1.2z" fill="#fff"/><path d="m28.864 58.579h-.928a.6.6 0 0 1 0-1.2h.928a.6.6 0 0 1 0 1.2z" fill="#fff"/></svg>