<svg height="496pt" viewBox="0 0 496 496" width="496pt" xmlns="http://www.w3.org/2000/svg"><path d="m334.398438 40h-278.398438v32h-48v-64h480v64h-48v-32zm0 0" fill="#ccd1d9"/><path d="m440 72v16c-26.480469 0-48 21.519531-48 48h-136c44.160156 0 80-35.839844 80-80 0-5.441406-.558594-10.800781-1.601562-16h105.601562zm0 0" fill="#b4dd7f"/><path d="m256 136h-152c0-26.480469-21.519531-48-48-48v-48h121.601562c-1.042968 5.199219-1.601562 10.558594-1.601562 16 0 44.160156 35.839844 80 80 80zm0 0" fill="#b4dd7f"/><path d="m440 88v48h-48c0-26.480469 21.519531-48 48-48zm0 0" fill="#8cc152"/><path d="m104 136h-48v-48c26.480469 0 48 21.519531 48 48zm0 0" fill="#8cc152"/><path d="m240 40h94.398438c1.042968 5.199219 1.601562 10.558594 1.601562 16 0 44.160156-35.839844 80-80 80s-80-35.839844-80-80c0-5.441406.558594-10.800781 1.601562-16zm0 0" fill="#fcd770"/><path d="m440 264v64c-26.480469 0-48 21.519531-48 48h-48v-64c0-4.398438-1.761719-8.398438-4.71875-11.28125-2.882812-2.957031-6.882812-4.71875-11.28125-4.71875 0-44.160156-35.839844-80-80-80h144c0 26.480469 21.519531 48 48 48zm0 0" fill="#b4dd7f"/><path d="m216 216h32c-44.160156 0-80 35.839844-80 80s35.839844 80 80 80h-144c0-26.480469-21.519531-48-48-48v-64c26.480469 0 48-21.519531 48-48zm0 0" fill="#b4dd7f"/><g fill="#f0d0b4"><path d="m248 200v16h-32v-16c0-4.398438 1.761719-8.398438 4.71875-11.28125 2.882812-2.957031 6.882812-4.71875 11.28125-4.71875 8.800781 0 16 7.199219 16 16zm0 0"/><path d="m280 200v16h-32v-16c0-4.398438 1.761719-8.398438 4.71875-11.28125 2.882812-2.957031 6.882812-4.71875 11.28125-4.71875 8.800781 0 16 7.199219 16 16zm0 0"/><path d="m216 200v16h-32v-16c0-4.398438 1.761719-8.398438 4.71875-11.28125 2.882812-2.957031 6.882812-4.71875 11.28125-4.71875 8.800781 0 16 7.199219 16 16zm0 0"/><path d="m312 200v16h-32v-16c0-4.398438 1.761719-8.398438 4.71875-11.28125 2.882812-2.957031 6.882812-4.71875 11.28125-4.71875 8.800781 0 16 7.199219 16 16zm0 0"/></g><path d="m328 296c-8.800781 0-16 7.199219-16 16v56c-6.078125 1.519531-11.601562 4.320312-16.160156 8h-47.839844c-44.160156 0-80-35.839844-80-80s35.839844-80 80-80 80 35.839844 80 80zm0 0" fill="#fcd770"/><path d="m440 328v48h-48c0-26.480469 21.519531-48 48-48zm0 0" fill="#8cc152"/><path d="m440 216v48c-26.480469 0-48-21.519531-48-48zm0 0" fill="#8cc152"/><path d="m295.839844 376c4.558594-3.679688 10.082031-6.480469 16.160156-8v-56c0-8.800781 7.199219-16 16-16 4.398438 0 8.398438 1.761719 11.28125 4.71875 2.957031 2.882812 4.71875 6.882812 4.71875 11.28125v72c0 10.398438-3.359375 20.480469-9.601562 28.800781l-14.398438 19.199219v24h-112v-24l-14.398438-19.199219c-6.242187-8.320312-9.601562-18.402343-9.601562-28.800781v-8zm0 0" fill="#f0d0b4"/><path d="m336 456v32h-144v-32zm0 0" fill="#fcd770"/><path d="m56 216h48c0 26.480469-21.519531 48-48 48zm0 0" fill="#8cc152"/><path d="m104 376h-48v-48c26.480469 0 48 21.519531 48 48zm0 0" fill="#8cc152"/><path d="m496 0h-496v80h48v64h400v-64h48zm-432 96.808594c15.648438 3.191406 28 15.542968 31.191406 31.191406h-31.191406zm47.359375 31.191406c-3.527344-24.472656-22.886719-43.832031-47.359375-47.359375v-32.640625h104.398438c-.238282 2.664062-.398438 5.328125-.398438 8 0 29.761719 14.886719 56.0625 37.558594 72zm122.113281-80c3.3125 9.289062 12.113282 16 22.527344 16 4.414062 0 8 3.585938 8 8s-3.585938 8-8 8-8-3.585938-8-8h-16c0 10.414062 6.710938 19.214844 16 22.527344v17.472656h16v-17.472656c9.289062-3.3125 16-12.113282 16-22.527344 0-13.230469-10.769531-24-24-24h71.527344c.296875 2.65625.472656 5.328125.472656 8 0 39.703125-32.296875 72-72 72s-72-32.296875-72-72c0-2.671875.183594-5.34375.480469-8zm110.527344 8c0-2.671875-.160156-5.335938-.398438-8h88.398438v32.640625c-24.472656 3.527344-43.832031 22.886719-47.359375 47.359375h-78.199219c22.671875-15.9375 37.558594-42.238281 37.558594-72zm56.808594 72c3.191406-15.648438 15.542968-28 31.191406-31.191406v31.191406zm79.191406-64h-32v-32h-400v32h-32v-48h464zm0 0"/><path d="m320 200c0-13.230469-10.769531-24-24-24-6.167969 0-11.742188 2.40625-16 6.238281-4.257812-3.839843-9.832031-6.238281-16-6.238281s-11.742188 2.40625-16 6.238281c-4.257812-3.839843-9.832031-6.238281-16-6.238281s-11.742188 2.40625-16 6.238281c-4.257812-3.839843-9.832031-6.238281-16-6.238281-13.230469 0-24 10.769531-24 24v8h-128v176h112v-16h-48.640625c-3.527344-24.472656-22.886719-43.832031-47.359375-47.359375v-49.28125c24.472656-3.527344 43.832031-22.886719 47.359375-47.359375h86.199219c-22.671875 15.9375-37.558594 42.238281-37.558594 72s14.886719 56.0625 37.558594 72h-21.558594v16c0 12.046875 3.976562 23.976562 11.199219 33.59375l12.800781 17.070312v13.335938h-16v48h160v-48h-16v-13.335938l12.800781-17.0625c7.222657-9.625 11.199219-21.554687 11.199219-33.601562h96v-176h-128zm-24-8c4.414062 0 8 3.585938 8 8v8h-16v-8c0-4.414062 3.585938-8 8-8zm-32 0c4.414062 0 8 3.585938 8 8v8h-16v-8c0-4.414062 3.585938-8 8-8zm-32 0c4.414062 0 8 3.585938 8 8v8h-16v-8c0-4.414062 3.585938-8 8-8zm-40 8c0-4.414062 3.585938-8 8-8s8 3.585938 8 8v8h-16zm-96.808594 168h-31.191406v-31.191406c15.648438 3.191406 28 15.542968 31.191406 31.191406zm-31.191406-112.808594v-31.191406h31.191406c-3.191406 15.648438-15.542968 28-31.191406 31.191406zm112 40.808594c0-39.703125 32.296875-72 72-72 37.535156 0 68.40625 28.871094 71.671875 65.574219-9.121094 3.402343-15.671875 12.128906-15.671875 22.425781v50.167969c-3.832031 1.488281-7.335938 3.527343-10.617188 5.832031h-45.382812c-39.703125 0-72-32.296875-72-72zm152 184h-128v-16h128zm8-96c0 8.601562-2.839844 17.128906-8 24l-16 21.335938v18.664062h-96v-18.664062l-16-21.34375c-5.160156-6.863282-8-15.390626-8-23.992188h86.792969c-4.273438 7.425781-6.792969 15.9375-6.792969 24.984375v7.015625h16v-7.015625c0-15.746094 10.664062-29.410156 25.9375-33.222656l6.0625-1.523438v-62.238281c0-4.414062 3.585938-8 8-8s8 3.585938 8 8zm-.335938-94.632812c-2.03125-27.007813-16.257812-50.632813-37.222656-65.367188h86.199219c3.527344 24.472656 22.886719 43.832031 47.359375 47.359375v49.28125c-24.472656 3.527344-43.832031 22.886719-47.359375 47.359375h-32.640625v-56c0-10.535156-6.871094-19.414062-16.335938-22.632812zm65.144532 78.632812c3.191406-15.648438 15.542968-28 31.191406-31.191406v31.191406zm31.191406-112.808594c-15.648438-3.191406-28-15.542968-31.191406-31.191406h31.191406zm0 0"/><path d="m248 288c-4.414062 0-8-3.585938-8-8s3.585938-8 8-8 8 3.585938 8 8h16c0-10.414062-6.710938-19.214844-16-22.527344v-17.472656h-16v17.472656c-9.289062 3.3125-16 12.113282-16 22.527344 0 13.230469 10.769531 24 24 24 4.414062 0 8 3.585938 8 8s-3.585938 8-8 8-8-3.585938-8-8h-16c0 10.414062 6.710938 19.214844 16 22.527344v17.472656h16v-17.472656c9.289062-3.3125 16-12.113282 16-22.527344 0-13.230469-10.769531-24-24-24zm0 0"/></svg>